<mxfile host="app.diagrams.net">
  <diagram name="Arsitektur Multiple Prosesor & SMP - Versi Kompleks" id="12345">
    <mxGraphModel dx="1200" dy="800" grid="1" gridSize="10" guides="1" tooltips="1" connect="1" fold="1" page="1" pageScale="1" pageWidth="827" pageHeight="1169">
      <root>
        <mxCell id="0" />
        <mxCell id="1" parent="0" />

        <!-- Judul -->
        <mxCell id="2" value="Arsitektur Multiple Prosesor" style="text;html=1;fontSize=16;fontStyle=1;" vertex="1" parent="1">
          <mxGeometry x="40" y="20" width="300" height="30" as="geometry" />
        </mxCell>

        <!-- CPU1 -->
        <mxCell id="3" value="CPU 1" style="rounded=1;fillColor=#ffe6cc;strokeColor=#d79b00;" vertex="1" parent="1">
          <mxGeometry x="20" y="70" width="80" height="40" as="geometry" />
        </mxCell>

        <!-- CPU2 -->
        <mxCell id="4" value="CPU 2" style="rounded=1;fillColor=#ffe6cc;strokeColor=#d79b00;" vertex="1" parent="1">
          <mxGeometry x="140" y="70" width="80" height="40" as="geometry" />
        </mxCell>

        <!-- Bus -->
        <mxCell id="5" value="System Bus" style="rounded=0;fillColor=#f8cecc;strokeColor=#b85450;" vertex="1" parent="1">
          <mxGeometry x="40" y="140" width="200" height="20" as="geometry" />
        </mxCell>

        <!-- Memory -->
        <mxCell id="6" value="Shared Memory" style="rounded=1;fillColor=#d5e8d4;strokeColor=#82b366;" vertex="1" parent="1">
          <mxGeometry x="80" y="200" width="120" height="50" as="geometry" />
        </mxCell>

        <!-- IO Device -->
        <mxCell id="7" value="I/O Device" style="shape=ellipse;fillColor=#dae8fc;strokeColor=#6c8ebf;" vertex="1" parent="1">
          <mxGeometry x="300" y="140" width="60" height="40" as="geometry" />
        </mxCell>

        <!-- Garis -->
        <mxCell id="8" style="edgeStyle=orthogonalEdgeStyle;html=1;" edge="1" parent="1" source="3" target="5">
          <mxGeometry relative="1" as="geometry" />
        </mxCell>
        <mxCell id="9" style="edgeStyle=orthogonalEdgeStyle;html=1;" edge="1" parent="1" source="4" target="5">
          <mxGeometry relative="1" as="geometry" />
        </mxCell>
        <mxCell id="10" style="edgeStyle=orthogonalEdgeStyle;html=1;" edge="1" parent="1" source="5" target="6">
          <mxGeometry relative="1" as="geometry" />
        </mxCell>
        <mxCell id="11" style="edgeStyle=orthogonalEdgeStyle;html=1;" edge="1" parent="1" source="5" target="7">
          <mxGeometry relative="1" as="geometry" />
        </mxCell>

        <!-- SMP -->
        <mxCell id="20" value="Arsitektur Symmetric Multiprocessing (SMP)" style="text;html=1;fontSize=16;fontStyle=1;" vertex="1" parent="1">
          <mxGeometry x="450" y="20" width="400" height="30" as="geometry" />
        </mxCell>

        <!-- CPU A -->
        <mxCell id="21" value="CPU A" style="rounded=1;fillColor=#fff2cc;strokeColor=#d6b656;" vertex="1" parent="1">
          <mxGeometry x="450" y="70" width="80" height="40" as="geometry" />
        </mxCell>

        <!-- Cache A -->
        <mxCell id="22" value="Cache A" style="shape=ellipse;fillColor=#d5e8d4;strokeColor=#82b366;" vertex="1" parent="1">
          <mxGeometry x="470" y="130" width="40" height="40" as="geometry" />
        </mxCell>

        <!-- CPU B -->
        <mxCell id="23" value="CPU B" style="rounded=1;fillColor=#fff2cc;strokeColor=#d6b656;" vertex="1" parent="1">
          <mxGeometry x="570" y="70" width="80" height="40" as="geometry" />
        </mxCell>

        <!-- Cache B -->
        <mxCell id="24" value="Cache B" style="shape=ellipse;fillColor=#d5e8d4;strokeColor=#82b366;" vertex="1" parent="1">
          <mxGeometry x="590" y="130" width="40" height="40" as="geometry" />
        </mxCell>

        <!-- CPU C -->
        <mxCell id="25" value="CPU C" style="rounded=1;fillColor=#fff2cc;strokeColor=#d6b656;" vertex="1" parent="1">
          <mxGeometry x="690" y="70" width="80" height="40" as="geometry" />
        </mxCell>

        <!-- Cache C -->
        <mxCell id="26" value="Cache C" style="shape=ellipse;fillColor=#d5e8d4;strokeColor=#82b366;" vertex="1" parent="1">
          <mxGeometry x="710" y="130" width="40" height="40" as="geometry" />
        </mxCell>

        <!-- Bus SMP -->
        <mxCell id="27" value="Shared Bus" style="rounded=0;fillColor=#f8cecc;strokeColor=#b85450;" vertex="1" parent="1">
          <mxGeometry x="530" y="200" width="200" height="20" as="geometry" />
        </mxCell>

        <!-- Memory SMP -->
        <mxCell id="28" value="Shared Memory" style="rounded=1;fillColor=#d5e8d4;strokeColor=#82b366;" vertex="1" parent="1">
          <mxGeometry x="580" y="260" width="100" height="50" as="geometry" />
        </mxCell>

        <!-- Garis CPU-Cache-Bus -->
        <mxCell id="29" style="edgeStyle=orthogonalEdgeStyle;html=1;" edge="1" parent="1" source="21" target="22">
          <mxGeometry relative="1" as="geometry" />
        </mxCell>
        <mxCell id="30" style="edgeStyle=orthogonalEdgeStyle;html=1;" edge="1" parent="1" source="22" target="27">
          <mxGeometry relative="1" as="geometry" />
        </mxCell>

        <mxCell id="31" style="edgeStyle=orthogonalEdgeStyle;html=1;" edge="1" parent="1" source="23" target="24">
          <mxGeometry relative="1" as="geometry" />
        </mxCell>
        <mxCell id="32" style="edgeStyle=orthogonalEdgeStyle;html=1;" edge="1" parent="1" source="24" target="27">
          <mxGeometry relative="1" as="geometry" />
        </mxCell>

        <mxCell id="33" style="edgeStyle=orthogonalEdgeStyle;html=1;" edge="1" parent="1" source="25" target="26">
          <mxGeometry relative="1" as="geometry" />
        </mxCell>
        <mxCell id="34" style="edgeStyle=orthogonalEdgeStyle;html=1;" edge="1" parent="1" source="26" target="27">
          <mxGeometry relative="1" as="geometry" />
        </mxCell>

        <!-- Garis Bus-Memory SMP -->
        <mxCell id="35" style="edgeStyle=orthogonalEdgeStyle;html=1;" edge="1" parent="1" source="27" target="28">
          <mxGeometry relative="1" as="geometry" />
        </mxCell>

      </root>
    </mxGraphModel>
  </diagram>
</mxfile>
